<?xml version="1.0" encoding="UTF-8"?>
<svg id="Layer_1" xmlns="http://www.w3.org/2000/svg" version="1.1" viewBox="0 0 756 761">
  <!-- Generator: Adobe Illustrator 29.3.1, SVG Export Plug-In . SVG Version: 2.1.0 Build 151)  -->
  <defs>
    <style>
      .st0 {
        fill: #c47cc3;
      }
    </style>
  </defs>
  <path class="st0" d="M408.5,739.1c-10,29.2-51,29.2-61,0-26.1-76.4-68.4-145.4-124.9-202.2-56.5-56.9-125-99.4-200.9-125.7-29-10-29-51.4,0-61.4,75.9-26.3,144.4-68.8,200.9-125.7,56.5-56.9,98.7-125.8,124.9-202.2,10-29.2,51-29.2,61,0,26.1,76.4,68.4,145.4,124.9,202.2s125,99.4,200.9,125.7c29,10,29,51.4,0,61.4-75.9,26.3-144.4,68.8-200.9,125.7-56.5,56.9-98.7,125.8-124.9,202.2Z"/>
</svg>