<?xml version="1.0" encoding="UTF-8"?>
<svg id="Layer_1" data-name="Layer 1" xmlns="http://www.w3.org/2000/svg" viewBox="0 0 770.5 704.05">
  <defs>
    <style>
      .cls-1 {
        fill: #ece7f5;
      }
    </style>
  </defs>
  <path id="1" class="cls-1" d="M312.9,62.07l66.92,193.19,193.19,66.92c18.48,6.4,18.48,32.53,0,38.93l-193.19,66.92-66.92,193.19c-6.4,18.48-32.53,18.48-38.93,0l-66.92-193.19L13.86,361.11c-18.48-6.4-18.48-32.53,0-38.93l193.19-66.92,66.92-193.19c6.4-18.48,32.53-18.48,38.93,0Z"/>
  <circle id="2" class="cls-1" cx="663.16" cy="59.46" r="59.46"/>
  <path id="3" class="cls-1" d="M762.15,580.37l-45.41,42.81-14.37,60.73c-6.35,26.85-44.56,26.85-50.91,0l-14.37-60.73-45.41-42.81c-20.07-18.92-.97-52.01,25.45-44.09l59.78,17.92,59.78-17.92c26.42-7.92,45.53,25.16,25.45,44.09Z"/>
</svg>