<?xml version="1.0" encoding="UTF-8"?>
<svg id="Layer_1" xmlns="http://www.w3.org/2000/svg" version="1.1" viewBox="0 0 809.82 385.33">
  <!-- Generator: Adobe Illustrator 29.3.1, SVG Export Plug-In . SVG Version: 2.1.0 Build 151)  -->
  <path d="M20,351.52c-11,0-20-9-20-20V53.81c0-11,9-20,20-20h182.92c11,0,20,9,20,20v42.24c0,11-9,20-20,20h-74.7c-11,0-20,6.62-20,14.72s9,14.72,20,14.72h74.7c11,0,20,9,20,20v24.49c0,11-9,20-20,20h-74.7c-11,0-20,9-20,20v19.3c0,11,9,20,20,20h74.7c11,0,20,9,20,20v42.24c0,11-9,20-20,20H20Z"/>
  <path d="M536.5,379.27c-8.58,6.88-21.23,5.48-28.1-3.11l-11.37-14.21c-6.87-8.59-21.11-13.02-31.64-9.85,0,0-21.1,6.35-43.18,6.35-91.33,0-165.78-74.45-165.78-165.78S330.87,26.89,422.2,26.89s165.78,74.45,165.78,165.78c0,38.09-25.02,83.75-25.02,83.75-5.29,9.65-3.98,24.56,2.9,33.14l10.04,12.51c6.88,8.58,5.49,21.23-3.1,28.11l-36.31,29.09ZM422.2,129.47c-31.6,0-57.57,28.57-57.57,63.2s25.97,63.2,57.57,63.2,57.57-28.57,57.57-63.2-25.97-63.2-57.57-63.2Z"/>
  <path d="M732.71,184.78l61.76-34.85c9.04-5.1,19.07,4.93,13.97,13.97l-34.85,61.76c-5.52,9.78-5.52,21.74,0,31.53l34.85,61.76c5.1,9.04-4.93,19.07-13.97,13.97l-61.76-34.85c-9.78-5.52-21.74-5.52-31.53,0l-61.76,34.85c-9.04,5.1-19.07-4.93-13.97-13.97l34.85-61.76c5.52-9.78,5.52-21.74,0-31.53l-34.85-61.76c-5.1-9.04,4.93-19.07,13.97-13.97l61.76,34.85c9.78,5.52,21.74,5.52,31.53,0Z"/>
  <path d="M475.59,1.91c1.42-4.24,38.58-2.75,69.4,18.26,37.53,25.59,51.45,70.43,47.49,73.05-3.38,2.23-18.26-27.09-58.44-56.62-33.54-24.64-59.67-31.03-58.44-34.7Z"/>
  <path d="M368.81,383.42c-1.42,4.24-38.58,2.75-69.4-18.26-37.53-25.59-51.45-70.43-47.49-73.05,3.38-2.23,18.26,27.09,58.44,56.62,33.54,24.64,59.67,31.03,58.44,34.7Z"/>
</svg>