<?xml version="1.0" encoding="UTF-8"?>
<svg id="Layer_1" xmlns="http://www.w3.org/2000/svg" version="1.1" viewBox="0 0 500 20">
  <!-- Generator: Adobe Illustrator 29.3.1, SVG Export Plug-In . SVG Version: 2.1.0 Build 151)  -->
  <defs>
    <style>
      .st0 {
        fill: #fff;
      }
    </style>
  </defs>
  <path class="st0" d="M238.41,4.32c-2.67-.33-5.46-.08-7.92,1.02-3.05,1.37-5.4,3.94-8.33,5.54-3.44,1.89-7.65,2.33-11.41,1.21-.66-.2-1.34-.46-1.81-.97s-.67-1.32-.3-1.91c.44-.69,1.44-.75,2.24-.56s1.59.55,2.41.44c1.07-.15,1.92-1.25,1.79-2.33-.13-1.07-1.06-1.88-2.04-2.34-2.08-.98-4.7-.81-6.55.56s-2.79,3.91-2.13,6.12c.55,1.85,2.11,3.29,3.88,4.08s3.74.99,5.68,1.01c3.84.05,7.69-.58,11.31-1.86,3.05-1.07,5.96-2.59,9.13-3.17,1.61-.29,3.26-.34,4.88-.13,1.22.16,2.59.43,3.59-.29,4.16-2.96-1.81-6.11-4.42-6.43Z"/>
  <path class="st0" d="M261.59,4.32c2.67-.33,5.46-.08,7.92,1.02,3.05,1.37,5.4,3.94,8.33,5.54,3.44,1.89,7.65,2.33,11.41,1.21.66-.2,1.34-.46,1.81-.97s.67-1.32.3-1.91c-.44-.69-1.44-.75-2.24-.56s-1.59.55-2.41.44c-1.07-.15-1.92-1.25-1.79-2.33.13-1.07,1.06-1.88,2.04-2.34,2.08-.98,4.7-.81,6.55.56,1.85,1.37,2.79,3.91,2.13,6.12-.55,1.85-2.11,3.29-3.88,4.08s-3.74.99-5.68,1.01c-3.84.05-7.69-.58-11.31-1.86-3.05-1.07-5.96-2.59-9.13-3.17-1.61-.29-3.26-.34-4.88-.13-1.22.16-2.59.43-3.59-.29-4.16-2.96,1.81-6.11,4.42-6.43Z"/>
  <circle class="st0" cx="249.5" cy="8.16" r="2.59"/>
  <rect class="st0" x="6.13" y="7.98" width="190.45" height="2.59"/>
  <rect class="st0" x="302.2" y="7.98" width="190.45" height="2.59"/>
</svg>