<?xml version="1.0" encoding="UTF-8"?>
<svg id="Layer_1" xmlns="http://www.w3.org/2000/svg" version="1.1" viewBox="0 0 72 72">
  <!-- Generator: Adobe Illustrator 29.3.1, SVG Export Plug-In . SVG Version: 2.1.0 Build 151)  -->
  <defs>
    <style>
      .st0 {
        stroke: #fff;
        stroke-miterlimit: 10;
        stroke-width: 2px;
      }

      .st0, .st1 {
        fill: #fff;
      }
    </style>
  </defs>
  <path class="st1" d="M36,0C16.12,0,0,16.12,0,36s16.12,36,36,36,36-16.12,36-36S55.88,0,36,0ZM36,67.67c-17.49,0-31.67-14.18-31.67-31.67S18.51,4.33,36,4.33s31.67,14.18,31.67,31.67-14.18,31.67-31.67,31.67Z"/>
  <path class="st1" d="M12.29,10.61"/>
  <path class="st0" d="M49.28,36.36c-2.27-2.08-5.5-3.8-9.72-5.14l-3.56-1.15c-1.17-.35-2.04-.75-2.62-1.17-.08-.06-.15-.12-.22-.18.01.54.25.99.73,1.34.49.36,1.22.69,2.19.99l2.98.96c3.53,1.13,6.23,2.57,8.13,4.32,1.89,1.75,2.84,4.13,2.84,7.14,0,3.2-1.26,5.79-3.77,7.76-2.51,1.98-6.2,2.97-11.08,2.97-1.72,0-3.32-.15-4.8-.43-1.49-.28-2.78-.69-3.88-1.24-1.11-.54-1.97-1.22-2.59-2.03-.62-.81-.93-1.74-.93-2.8s.32-2.02.96-2.79c.08-.1.16-.19.25-.28-.08-.06-.15-.11-.22-.17-.9.49-1.73,1.2-2.49,2.12-.76.92-1.14,2.03-1.14,3.33s.37,2.36,1.11,3.32c.74.97,1.77,1.77,3.09,2.42,1.32.65,2.87,1.15,4.64,1.48,1.77.34,3.68.51,5.74.51,5.83,0,10.25-1.18,13.25-3.53,3-2.36,4.5-5.44,4.5-9.25,0-3.58-1.13-6.42-3.39-8.5ZM24.03,35.79c1.17.99,2.56,1.83,4.17,2.52,1.62.69,3.41,1.38,5.38,2.05l2.82.94c1.3.45,2.31.91,3.03,1.38.14.09.27.2.39.32-.08-.58-.37-1.04-.87-1.37-.6-.39-1.44-.78-2.53-1.15l-2.36-.79c-1.65-.57-3.15-1.14-4.5-1.73-1.35-.58-2.51-1.28-3.49-2.11-.97-.83-1.73-1.82-2.27-2.97-.55-1.14-.82-2.55-.82-4.2,0-3.2,1.23-5.76,3.68-7.68,2.46-1.92,5.9-2.88,10.32-2.88,1.61,0,3.11.11,4.5.34,1.39.23,2.58.57,3.57,1.04.99.48,1.77,1.08,2.33,1.81.57.73.85,1.59.85,2.57s-.23,1.82-.68,2.51c-.02.03-.04.06-.07.09.1.05.19.11.28.17.77-.59,1.42-1.29,1.95-2.12.54-.83.81-1.83.81-2.99s-.34-2.19-1.01-3.06c-.67-.88-1.6-1.59-2.79-2.15-1.18-.56-2.61-.98-4.27-1.25-1.66-.27-3.45-.4-5.37-.4-5.29,0-9.41,1.14-12.34,3.43-2.94,2.28-4.4,5.33-4.4,9.14,0,1.97.32,3.64.97,5.01s1.56,2.54,2.72,3.53Z"/>
</svg>