<?xml version="1.0" encoding="UTF-8"?>
<svg id="Layer_1" data-name="Layer 1" xmlns="http://www.w3.org/2000/svg" viewBox="0 0 1000 1000">
  <defs>
    <style>
      .cls-1 {
        fill: #87a3e2;
      }
    </style>
  </defs>
  <path class="cls-1" d="M500,0C223.86,0,0,223.86,0,500s223.86,500,500,500,500-223.86,500-500S776.14,0,500,0ZM694.95,206.85c-.63,25.78-1.25,51.55-1.88,77.33-.3,12.59-.58,25.39,2.66,37.56,5.61,21.05,21.04,37.91,30.7,57.43,15.73,31.78,17.45,84.33-8.41,111.49,1.25-29.3-8.91-53.94-25.14-78.02-16.17-23.99-35.47-47.08-42.19-75.21-11.08-46.32,14.67-93.26,44.26-130.58ZM351.55,209.43c7.35-22.4,7.97-46.96,1.75-69.7,15.15,10.37,31.02,21.59,38.47,38.37,4.2,9.45,5.35,19.98,5.54,30.32.37,20.57.57,73.41-29.07,71.88-37.09-1.91-23.33-50.63-16.69-70.87ZM731.49,756.85c-3.94,16.27-9.64,32.45-19.85,45.7-12.59,16.34-31.05,27.01-49.59,36.04-67.36,32.79-163.2,54.57-234.29,25.23-44.53-18.38-86.99-44.31-117.55-81.55-30.56-37.25-48.05-86.94-39.58-134.37,9.69-54.26,50.53-97.75,67.82-150.08,17.2-52.04,8.99-111.82-21.57-157.31,34.42,8.08,63.49,35.84,73.15,69.85,6.14,21.66,4.8,44.61,6.23,67.07,1.44,22.46,6.43,46.18,22.25,62.19,15.83,16.01,45.26,19.97,60.06,3.01,5.24-5.99,8.05-13.72,10-21.44,13.95-55.39-11.79-111.91-24.56-167.59-10.51-45.85-12.1-94.56,1.85-139.48,13.95-44.93,44.59-85.69,86.96-106.13-34.64,76.47-28.63,170.01,15.51,241.42,22.1,35.74,53.26,66.72,66.22,106.69,19.61,60.44-6.76,125.2-32.66,183.24,20.84,9.49,46.24,2.14,64.05-12.25,17.8-14.4,29.61-34.72,41.03-54.57,30.54,55.59,39.46,122.7,24.52,184.33Z"/>
  <path class="cls-1" d="M665.03,776.22c0,31.86-76.8,63.02-140.07,64.12-88.59,1.53-177.81-55.4-172.62-89.76,3.62-23.95,52.77-34.63,74.97-39.46,108.78-23.63,237.73,23.82,237.72,65.1Z"/>
</svg>